<?xml version="1.0" standalone="no"?>
<!DOCTYPE svg PUBLIC "-//W3C//DTD SVG 20010904//EN"
 "http://www.w3.org/TR/2001/REC-SVG-20010904/DTD/svg10.dtd">
<svg version="1.0" xmlns="http://www.w3.org/2000/svg"
 width="360.000000pt" height="360.000000pt" viewBox="0 0 360.000000 360.000000"
 preserveAspectRatio="xMidYMid meet">

<g transform="translate(0.000000,360.000000) scale(0.100000,-0.100000)"
fill="#000000" stroke="none">
<path d="M1339 3150 c-113 -11 -215 -36 -370 -91 -207 -72 -203 -70 -313 -218
-53 -72 -105 -149 -115 -173 -49 -115 -54 -255 -12 -337 21 -40 118 -148 126
-140 2 2 -2 25 -8 52 -25 110 36 250 167 382 238 240 564 336 1141 338 389 1
641 -51 954 -199 63 -30 113 -52 110 -50 -2 3 -58 43 -124 90 -237 169 -451
257 -785 322 -123 24 -160 27 -415 29 -154 2 -314 0 -356 -5z"/>
<path d="M1680 2900 c-146 -14 -296 -39 -387 -66 -77 -22 -227 -83 -220 -90 1
-1 29 6 62 17 151 50 459 65 673 33 287 -42 647 -180 889 -340 156 -104 352
-325 433 -489 63 -128 75 -186 75 -370 -1 -151 -3 -164 -29 -235 -16 -41 -43
-95 -60 -119 -17 -24 -38 -53 -46 -64 -34 -47 112 67 177 138 85 94 135 175
167 274 49 150 58 278 31 436 -30 168 -129 378 -227 477 -90 92 -285 202 -499
281 -237 89 -407 118 -714 122 -126 2 -273 0 -325 -5z"/>
<path d="M480 2723 c-66 -73 -124 -157 -163 -241 -28 -60 -31 -78 -35 -183 -7
-183 32 -285 152 -405 126 -125 250 -182 486 -223 114 -20 472 -62 477 -57 2
1 -6 25 -16 52 -11 27 -25 68 -31 92 -24 93 -116 150 -293 182 -133 23 -215
57 -341 140 -129 85 -166 117 -209 183 -87 130 -88 278 -4 450 18 37 32 67 31
67 -1 0 -25 -25 -54 -57z"/>
<path d="M311 2618 c-62 -78 -125 -187 -151 -259 -49 -140 -51 -358 -5 -514
41 -138 78 -208 156 -290 113 -119 221 -180 425 -241 80 -23 113 -27 324 -35
405 -15 509 -29 636 -89 101 -48 148 -106 179 -219 l12 -44 16 59 c55 202 22
300 -134 400 -187 119 -298 158 -529 185 -455 51 -594 89 -753 203 -166 118
-252 263 -264 446 -10 155 24 281 110 408 20 28 34 52 32 52 -3 0 -27 -28 -54
-62z"/>
<path d="M2510 2486 c0 -3 9 -10 20 -16 11 -6 20 -8 20 -6 0 3 -9 10 -20 16
-11 6 -20 8 -20 6z"/>
<path d="M2560 2457 c0 -2 19 -17 43 -32 80 -53 189 -150 234 -210 53 -69 105
-175 124 -255 19 -77 16 -252 -6 -325 -51 -177 -187 -342 -383 -465 -368 -230
-421 -284 -445 -453 -9 -62 -7 -83 11 -155 23 -89 56 -163 102 -225 l29 -40
-2 184 c-2 174 -1 187 22 236 26 59 106 140 171 173 64 33 206 86 280 105 97
25 189 78 277 160 87 80 120 133 153 243 20 65 22 90 18 210 -6 156 -28 241
-99 369 -48 86 -161 235 -215 282 -60 53 -314 213 -314 198z"/>
<path d="M2701 2295 c141 -154 182 -262 160 -423 -14 -108 -51 -180 -132 -258
-79 -75 -120 -102 -300 -205 -185 -105 -277 -168 -350 -243 -70 -70 -125 -173
-139 -258 -25 -155 72 -397 213 -535 l60 -58 -26 45 c-42 73 -87 187 -98 246
-13 73 4 194 36 250 50 85 191 194 388 300 217 116 359 272 423 464 29 88 25
243 -10 345 -46 134 -83 191 -195 305 -74 74 -82 82 -30 25z"/>
<path d="M2102 630 c0 -19 2 -27 5 -17 2 9 2 25 0 35 -3 9 -5 1 -5 -18z"/>
</g>
</svg>
